<svg xmlns="http://www.w3.org/2000/svg" width="1500" height="1500" viewBox="0 0 1500 1500" version="1.1"><path d="M 677.500 248.134 C 616.068 254.605, 562.180 287.561, 528.598 339.199 C 515.763 358.934, 505.261 384.807, 500.528 408.354 C 496.194 429.914, 495.061 463.580, 496.672 523 L 497.254 544.500 507.218 541.242 C 512.697 539.450, 522.428 537.026, 528.840 535.855 L 540.500 533.725 572 533.613 L 603.500 533.500 604.068 483.500 C 604.679 429.668, 604.654 429.934, 610.466 414.495 C 620.689 387.334, 644.340 366.253, 673.552 358.265 L 683.500 355.544 731.500 355.522 L 779.500 355.500 788.356 357.756 C 805.670 362.168, 818.893 369.374, 830.429 380.686 C 846.873 396.812, 856.511 417.214, 858.960 441.081 C 859.532 446.653, 860 469.821, 860 492.565 L 860 533.918 881.750 533.382 C 919.714 532.447, 943.309 535.595, 965.334 544.534 L 967.169 545.279 966.737 487.389 C 966.273 425.169, 965.961 420.770, 960.444 398.699 C 954.280 374.038, 941.758 347.856, 926.227 327.156 C 919.044 317.584, 901.711 299.535, 892.500 292.036 C 866.007 270.469, 835.361 256.406, 800.500 249.820 L 789.500 247.742 738 247.464 C 709.675 247.311, 682.450 247.612, 677.500 248.134 M 708 571.081 C 708 571.401, 709.176 572.292, 710.614 573.061 C 715.482 575.666, 733.086 595.240, 740.147 605.900 C 759.929 635.761, 768.996 668.525, 768.999 710.155 L 769 722.809 774.394 725.853 C 791.466 735.488, 801.676 756.714, 798.911 776.818 C 797.021 790.549, 785.197 807.782, 774.026 813.086 L 769 815.472 768.991 830.486 C 768.966 874.978, 761.146 904.836, 741.880 934 C 735.846 943.134, 717.266 963.069, 709 969.277 L 705.500 971.906 809.372 971.953 L 913.243 972 923.838 970.427 C 955.914 965.664, 985.374 949.138, 1005.928 924.378 C 1019.558 907.958, 1027.316 892.729, 1032.474 872.267 C 1036.907 854.680, 1037.156 848.418, 1036.754 764.500 L 1036.377 685.500 1034.308 676.500 C 1029.923 657.429, 1023.731 642.690, 1014.034 628.241 C 997.845 604.123, 974.419 586.386, 946.461 577.081 C 928.097 570.969, 929.623 571.042, 813.750 570.759 C 755.587 570.616, 708 570.761, 708 571.081 M 535.500 572.658 C 524.876 574.571, 509.141 579.901, 498.857 585.072 C 486.010 591.531, 476.416 598.425, 465.692 608.904 C 446.565 627.595, 435.040 648.939, 428.756 677.312 L 426.500 687.500 426.507 770.500 L 426.514 853.500 428.299 862.500 C 433.992 891.220, 446.291 914.270, 466.260 933.645 C 481.920 948.839, 498.112 958.748, 518.340 965.514 C 535.142 971.135, 543.308 971.991, 580.119 971.996 C 614.401 972, 621.852 971.341, 637.847 966.887 C 678.499 955.567, 712.242 922.861, 724.914 882.494 C 729.860 866.739, 731.006 858.031, 730.950 836.619 L 730.900 817.500 724.700 814.575 C 711.231 808.220, 699.134 791.679, 697.089 776.818 C 694.020 754.505, 706.119 731.917, 725.746 723.323 L 732.194 720.500 731.627 702 C 730.365 660.838, 719.620 634.360, 693.630 608.370 C 673.780 588.520, 652.183 577.181, 625.290 572.491 C 613.406 570.419, 547.256 570.542, 535.500 572.658 M 612.778 1113.203 C 599.436 1120.938, 608.068 1142.780, 623.158 1139.465 C 627.295 1138.557, 632.648 1133.597, 634.038 1129.385 C 638.155 1116.909, 624.420 1106.455, 612.778 1113.203 M 1165.821 1113.333 C 1160.480 1114.842, 1155.140 1118.590, 1151.950 1123.070 C 1148.422 1128.025, 1147 1134.514, 1147 1145.659 L 1147 1156 1138.500 1156 L 1130 1156 1130 1160.500 L 1130 1165 1138.500 1165 L 1147 1165 1147 1210 L 1147 1255 1152 1255 L 1157 1255 1157 1210 L 1157 1165 1172.500 1165 L 1188 1165 1188 1160.500 L 1188 1156 1172.418 1156 L 1156.837 1156 1157.168 1143.569 L 1157.500 1131.139 1159.559 1128.319 C 1162.350 1124.496, 1169.516 1120.993, 1174.462 1121.033 C 1176.683 1121.051, 1180.975 1121.936, 1184 1123 C 1190.931 1125.438, 1190.670 1125.453, 1191.387 1122.593 C 1191.720 1121.269, 1192.268 1119.466, 1192.606 1118.585 C 1194.199 1114.432, 1175.153 1110.698, 1165.821 1113.333 M 205.607 1119.641 C 184.613 1124.142, 171.989 1137.656, 171.174 1156.500 C 170.523 1171.521, 176.989 1181.872, 191.359 1188.813 C 195.131 1190.636, 206.511 1194.349, 216.647 1197.066 C 243.914 1204.374, 248.329 1207.297, 248.368 1218.071 C 248.443 1238.955, 210.209 1242.118, 182.478 1223.522 L 176.098 1219.243 171.026 1228.339 C 168.236 1233.342, 166.160 1237.976, 166.414 1238.636 C 167.333 1241.030, 180.741 1247.988, 191 1251.393 C 223.976 1262.339, 257.775 1254.947, 268.698 1234.400 C 276.509 1219.707, 274.546 1202.782, 263.783 1192.019 C 257.877 1186.112, 247.878 1181.766, 228.117 1176.517 C 209.052 1171.452, 202.242 1168.552, 199.123 1164.172 C 193.543 1156.336, 196.538 1146.538, 206 1141.671 L 211.500 1138.842 223 1139.262 C 235.859 1139.732, 246.484 1142.626, 255.378 1148.084 C 258.061 1149.730, 260.359 1150.947, 260.484 1150.788 C 260.609 1150.630, 262.781 1146.094, 265.312 1140.709 L 269.912 1130.917 266.706 1128.965 C 261.269 1125.654, 247.961 1121.308, 238.074 1119.615 C 226.620 1117.653, 214.835 1117.662, 205.607 1119.641 M 938.459 1119.338 C 925.851 1122.543, 916.034 1130.126, 911.454 1140.200 C 907.664 1148.533, 907.458 1158.864, 910.923 1166.727 C 915.861 1177.933, 926.688 1184.265, 952.550 1191.077 C 976.769 1197.455, 985.992 1202.220, 989.950 1210.396 C 994.709 1220.227, 990.863 1232.960, 981.304 1239.022 C 973.120 1244.212, 967.750 1245.503, 954.500 1245.467 C 936.861 1245.419, 925.691 1241.881, 912.956 1232.308 L 906.900 1227.755 905.506 1229.628 C 904.739 1230.657, 903.530 1232.569, 902.819 1233.876 L 901.527 1236.252 905.514 1239.703 C 910.449 1243.976, 925.473 1251.441, 933.500 1253.609 C 942.542 1256.052, 961.928 1256.561, 970.387 1254.579 C 979.697 1252.397, 990.206 1246.709, 995.011 1241.250 C 1003.513 1231.591, 1005.611 1216.544, 1000.017 1205.350 C 996.541 1198.393, 994.602 1196.404, 986.627 1191.612 C 979.780 1187.497, 970.763 1184.385, 951.928 1179.636 C 932.163 1174.653, 924.934 1170.476, 920.975 1161.754 C 915.421 1149.519, 921.829 1136.582, 936.500 1130.410 C 942.550 1127.865, 956.955 1127.405, 966.982 1129.436 C 975.416 1131.145, 985.689 1135.218, 990.869 1138.907 L 993.696 1140.920 996.024 1135.949 L 998.352 1130.978 996.426 1129.518 C 993.716 1127.463, 981.313 1122.337, 974.354 1120.395 C 966.643 1118.244, 945.245 1117.614, 938.459 1119.338 M 439 1154.102 C 429.095 1155.476, 418.351 1161.227, 414.264 1167.343 C 410.057 1173.637, 408.662 1179.048, 409.270 1186.710 C 410.133 1197.580, 415.931 1204.506, 428.007 1209.095 C 430.902 1210.195, 438.947 1212.441, 445.885 1214.086 C 453.364 1215.860, 459.990 1218.062, 462.161 1219.494 C 468.889 1223.935, 468.083 1231.709, 460.500 1235.500 C 457.267 1237.116, 454.582 1237.489, 446.500 1237.441 C 435.386 1237.375, 427.369 1235.203, 418.735 1229.917 C 416.114 1228.313, 413.639 1227.031, 413.235 1227.068 C 412.831 1227.106, 410.732 1230.742, 408.571 1235.148 C 405.308 1241.802, 404.884 1243.322, 406.071 1244.115 C 417.515 1251.760, 428.180 1255.122, 443 1255.757 C 456.216 1256.323, 462.948 1255.222, 471.565 1251.086 C 482.862 1245.663, 488.939 1236.541, 488.978 1224.946 C 488.995 1219.841, 488.418 1217.224, 486.365 1213.105 C 481.887 1204.119, 474.766 1200.295, 452.500 1194.923 C 438.226 1191.479, 434.898 1190.121, 432.561 1186.783 C 426.802 1178.561, 437.296 1169.824, 451 1171.431 C 458.373 1172.295, 466.860 1174.555, 472.702 1177.210 C 475.341 1178.410, 477.865 1179.415, 478.311 1179.445 C 478.757 1179.475, 480.882 1175.757, 483.032 1171.181 L 486.942 1162.863 481.632 1160.432 C 469.785 1155.008, 451.762 1152.332, 439 1154.102 M 537.500 1154.012 C 522.422 1156.072, 510.729 1164.252, 507.594 1174.932 C 505.593 1181.750, 505.569 1187.527, 507.520 1193.056 C 511.248 1203.623, 518.531 1208.097, 540.952 1213.592 C 548.853 1215.528, 556.568 1217.760, 558.098 1218.551 C 564.463 1221.842, 565.841 1228.313, 561.171 1232.983 C 556.115 1238.039, 544.678 1239.427, 532.240 1236.494 C 525.933 1235.008, 514.686 1229.919, 513.514 1228.022 C 511.999 1225.572, 509.980 1227.509, 506.574 1234.682 C 504.567 1238.907, 503.164 1242.985, 503.455 1243.743 C 504.241 1245.791, 519.699 1252.725, 527.608 1254.577 C 532.706 1255.771, 537.754 1256.080, 547 1255.765 L 559.500 1255.339 565.872 1252.690 C 579.394 1247.068, 586.446 1237.569, 586.374 1225.069 C 586.347 1220.345, 585.696 1217.164, 584.055 1213.744 C 579.716 1204.697, 572.782 1200.857, 551.089 1195.487 C 535.263 1191.570, 531.784 1190.126, 529.397 1186.484 C 527.225 1183.169, 528.281 1177.711, 531.598 1175.102 C 535.580 1171.970, 543.553 1170.730, 551.528 1172.004 C 559.182 1173.227, 569.336 1176.422, 572.408 1178.573 C 575.281 1180.586, 576.755 1180.351, 577.571 1177.750 C 577.959 1176.513, 579.564 1172.833, 581.138 1169.573 C 582.712 1166.313, 584 1163.475, 584 1163.267 C 584 1163.060, 581.597 1161.789, 578.660 1160.445 C 567.032 1155.121, 549.472 1152.377, 537.500 1154.012 M 700.402 1153.997 C 673.697 1157.913, 656 1178.309, 656 1205.172 C 656 1224.572, 667.333 1242.871, 684.302 1250.869 C 717.153 1266.352, 755.064 1246.519, 760.219 1211.154 L 761.427 1202.862 759.755 1194.777 C 757.533 1184.028, 754.015 1177.159, 746.765 1169.408 C 739.355 1161.487, 729.969 1156.538, 718.464 1154.489 C 709.747 1152.936, 707.970 1152.887, 700.402 1153.997 M 830.712 1154.141 C 823.430 1155.537, 815.647 1159.363, 810.572 1164.041 L 806 1168.255 806 1161.627 L 806 1155 795 1155 L 784 1155 784 1205.033 L 784 1255.066 795.250 1254.783 L 806.500 1254.500 807 1223 L 807.500 1191.500 809.658 1187.500 C 813.927 1179.589, 820.836 1175.097, 830.016 1174.265 C 840.178 1173.343, 848.589 1177.719, 852.369 1185.892 L 854.500 1190.500 854.775 1222.500 L 855.049 1254.500 866.275 1254.500 L 877.500 1254.500 877.797 1221.500 C 878.117 1185.932, 877.597 1180.159, 873.278 1171.324 C 868.787 1162.137, 860.333 1156.240, 848.566 1154.086 C 841.737 1152.836, 837.453 1152.849, 830.712 1154.141 M 326 1155.836 C 313.214 1160.095, 305.799 1165.289, 299.550 1174.362 C 285.335 1195.002, 287.692 1224.144, 304.943 1241.023 C 311.514 1247.453, 320.103 1252.110, 329.988 1254.602 C 339.568 1257.017, 355.273 1256.133, 364.280 1252.672 C 371.508 1249.895, 381.854 1243.543, 382.687 1241.372 C 382.964 1240.651, 380.792 1237.235, 377.861 1233.781 C 374.929 1230.326, 372.453 1227.354, 372.358 1227.176 C 372.264 1226.998, 370.297 1228.221, 367.988 1229.894 C 361.405 1234.662, 354.007 1237, 345.500 1237 C 331.702 1237, 321.735 1231.161, 316.023 1219.731 L 312.909 1213.500 352.088 1213.238 L 391.266 1212.977 390.777 1203.238 C 389.635 1180.489, 377.166 1162.299, 358.649 1156.368 C 350.728 1153.831, 332.889 1153.540, 326 1155.836 M 1059.161 1155.076 C 1055.675 1155.528, 1050.500 1156.642, 1047.661 1157.552 C 1040.587 1159.819, 1029 1165.121, 1029 1166.091 C 1029 1167.477, 1033.220 1174.099, 1033.874 1173.740 C 1054.437 1162.435, 1077.130 1160.846, 1088.126 1169.942 C 1093.171 1174.115, 1095.812 1180.306, 1096.605 1189.817 L 1097.269 1197.782 1074.385 1198.236 L 1051.500 1198.689 1044.995 1200.809 C 1036.461 1203.590, 1031.011 1207.726, 1027.585 1214.021 C 1020.724 1226.626, 1024.280 1241.988, 1035.854 1249.744 C 1042.306 1254.069, 1049.784 1256, 1060.076 1256 C 1074.176 1256, 1086.262 1251.160, 1093.908 1242.452 L 1096.916 1239.026 1097.208 1246.763 L 1097.500 1254.500 1102.250 1254.805 L 1107 1255.110 1107 1219.644 L 1107 1184.178 1105.095 1178.058 C 1103.249 1172.127, 1099.693 1166.416, 1095.525 1162.689 C 1092.016 1159.551, 1083.742 1156.144, 1077 1155.060 C 1069.759 1153.896, 1068.247 1153.897, 1059.161 1155.076 M 1236.402 1155.486 C 1219.394 1159.186, 1206.091 1171.253, 1201.059 1187.545 C 1194.975 1207.241, 1199.305 1227.440, 1212.428 1240.580 C 1224.085 1252.252, 1240.474 1257.652, 1256.750 1255.183 C 1266.009 1253.779, 1278.844 1247.850, 1283.852 1242.665 L 1287.204 1239.195 1284.914 1236.097 C 1283.654 1234.394, 1282.222 1233, 1281.730 1233 C 1281.239 1233, 1278.929 1234.563, 1276.598 1236.473 C 1264.031 1246.771, 1246.293 1249.082, 1231.854 1242.303 C 1223.889 1238.563, 1220.116 1235.388, 1215.663 1228.680 C 1212.602 1224.067, 1207.362 1211.287, 1208.200 1210.477 C 1208.365 1210.318, 1228.022 1209.856, 1251.882 1209.451 L 1295.264 1208.714 1294.744 1200.607 C 1294.458 1196.148, 1293.272 1189.800, 1292.108 1186.500 C 1289.528 1179.186, 1282.127 1168.097, 1277.442 1164.523 C 1271.987 1160.363, 1262.077 1156.180, 1255 1155.052 C 1246.877 1153.756, 1244.047 1153.822, 1236.402 1155.486 M 609 1205 L 609 1255 620.500 1255 L 632 1255 632 1205 L 632 1155 620.500 1155 L 609 1155 609 1205 M 1234.863 1165.512 C 1221.753 1169.704, 1211.517 1182.210, 1208.477 1197.750 L 1207.841 1201 1246.440 1201 L 1285.038 1201 1284.419 1198.250 C 1281.614 1185.798, 1279.636 1181.663, 1273.177 1174.758 C 1265.993 1167.077, 1260.444 1164.683, 1249 1164.326 C 1242.609 1164.126, 1237.982 1164.514, 1234.863 1165.512 M 331.500 1173.148 C 328.129 1174.392, 322.418 1178.421, 319.694 1181.475 C 317.108 1184.375, 313.021 1193.102, 313.010 1195.750 L 313 1198 341 1198 L 369 1198 369 1195.395 C 369 1192.309, 364.754 1183.474, 361.675 1180.155 C 356.863 1174.966, 351.196 1172.643, 342.592 1172.332 C 338.141 1172.172, 333.150 1172.538, 331.500 1173.148 M 698.275 1174.594 C 692.181 1176.839, 684.707 1183.972, 681.901 1190.221 C 679.980 1194.500, 679.528 1197.205, 679.515 1204.500 L 679.500 1213.500 682.151 1219.155 C 687.482 1230.526, 696.228 1236, 709.064 1236 C 714.468 1236, 716.814 1235.456, 721.132 1233.200 C 741.708 1222.451, 742.325 1187.946, 722.143 1176.677 C 715.558 1173, 705.082 1172.086, 698.275 1174.594 M 1054.217 1207.103 C 1038.450 1209.760, 1030.224 1222.090, 1035.893 1234.571 C 1043.917 1252.237, 1074.757 1252.082, 1091.015 1234.294 C 1096.587 1228.197, 1097.243 1225.955, 1096.805 1214.500 L 1096.500 1206.500 1078 1206.356 C 1067.825 1206.277, 1057.123 1206.613, 1054.217 1207.103" stroke="none" fill="#446c88" fill-rule="evenodd"/><path d="M -0 750.001 L -0 1500.001 750.250 1499.751 L 1500.500 1499.500 1500.751 749.750 L 1501.001 0 750.501 0 L 0 0 -0 750.001 M 0.497 750.500 C 0.497 1163, 0.611 1331.600, 0.750 1125.168 C 0.889 918.735, 0.889 581.235, 0.750 375.168 C 0.611 169.100, 0.497 338, 0.497 750.500 M 677.500 248.134 C 616.068 254.605, 562.180 287.561, 528.598 339.199 C 515.763 358.934, 505.261 384.807, 500.528 408.354 C 496.194 429.914, 495.061 463.580, 496.672 523 L 497.254 544.500 507.218 541.242 C 512.697 539.450, 522.428 537.026, 528.840 535.855 L 540.500 533.725 572 533.613 L 603.500 533.500 604.068 483.500 C 604.679 429.668, 604.654 429.934, 610.466 414.495 C 620.689 387.334, 644.340 366.253, 673.552 358.265 L 683.500 355.544 731.500 355.522 L 779.500 355.500 788.356 357.756 C 805.670 362.168, 818.893 369.374, 830.429 380.686 C 846.873 396.812, 856.511 417.214, 858.960 441.081 C 859.532 446.653, 860 469.821, 860 492.565 L 860 533.918 881.750 533.382 C 919.714 532.447, 943.309 535.595, 965.334 544.534 L 967.169 545.279 966.737 487.389 C 966.273 425.169, 965.961 420.770, 960.444 398.699 C 954.280 374.038, 941.758 347.856, 926.227 327.156 C 919.044 317.584, 901.711 299.535, 892.500 292.036 C 866.007 270.469, 835.361 256.406, 800.500 249.820 L 789.500 247.742 738 247.464 C 709.675 247.311, 682.450 247.612, 677.500 248.134 M 708 571.081 C 708 571.401, 709.176 572.292, 710.614 573.061 C 715.482 575.666, 733.086 595.240, 740.147 605.900 C 759.929 635.761, 768.996 668.525, 768.999 710.155 L 769 722.809 774.394 725.853 C 791.466 735.488, 801.676 756.714, 798.911 776.818 C 797.021 790.549, 785.197 807.782, 774.026 813.086 L 769 815.472 768.991 830.486 C 768.966 874.978, 761.146 904.836, 741.880 934 C 735.846 943.134, 717.266 963.069, 709 969.277 L 705.500 971.906 809.372 971.953 L 913.243 972 923.838 970.427 C 955.914 965.664, 985.374 949.138, 1005.928 924.378 C 1019.558 907.958, 1027.316 892.729, 1032.474 872.267 C 1036.907 854.680, 1037.156 848.418, 1036.754 764.500 L 1036.377 685.500 1034.308 676.500 C 1029.923 657.429, 1023.731 642.690, 1014.034 628.241 C 997.845 604.123, 974.419 586.386, 946.461 577.081 C 928.097 570.969, 929.623 571.042, 813.750 570.759 C 755.587 570.616, 708 570.761, 708 571.081 M 535.500 572.658 C 524.876 574.571, 509.141 579.901, 498.857 585.072 C 486.010 591.531, 476.416 598.425, 465.692 608.904 C 446.565 627.595, 435.040 648.939, 428.756 677.312 L 426.500 687.500 426.507 770.500 L 426.514 853.500 428.299 862.500 C 433.992 891.220, 446.291 914.270, 466.260 933.645 C 481.920 948.839, 498.112 958.748, 518.340 965.514 C 535.142 971.135, 543.308 971.991, 580.119 971.996 C 614.401 972, 621.852 971.341, 637.847 966.887 C 678.499 955.567, 712.242 922.861, 724.914 882.494 C 729.860 866.739, 731.006 858.031, 730.950 836.619 L 730.900 817.500 724.700 814.575 C 711.231 808.220, 699.134 791.679, 697.089 776.818 C 694.020 754.505, 706.119 731.917, 725.746 723.323 L 732.194 720.500 731.627 702 C 730.365 660.838, 719.620 634.360, 693.630 608.370 C 673.780 588.520, 652.183 577.181, 625.290 572.491 C 613.406 570.419, 547.256 570.542, 535.500 572.658 M 612.778 1113.203 C 599.436 1120.938, 608.068 1142.780, 623.158 1139.465 C 627.295 1138.557, 632.648 1133.597, 634.038 1129.385 C 638.155 1116.909, 624.420 1106.455, 612.778 1113.203 M 1165.821 1113.333 C 1160.480 1114.842, 1155.140 1118.590, 1151.950 1123.070 C 1148.422 1128.025, 1147 1134.514, 1147 1145.659 L 1147 1156 1138.500 1156 L 1130 1156 1130 1160.500 L 1130 1165 1138.500 1165 L 1147 1165 1147 1210 L 1147 1255 1152 1255 L 1157 1255 1157 1210 L 1157 1165 1172.500 1165 L 1188 1165 1188 1160.500 L 1188 1156 1172.418 1156 L 1156.837 1156 1157.168 1143.569 L 1157.500 1131.139 1159.559 1128.319 C 1162.350 1124.496, 1169.516 1120.993, 1174.462 1121.033 C 1176.683 1121.051, 1180.975 1121.936, 1184 1123 C 1190.931 1125.438, 1190.670 1125.453, 1191.387 1122.593 C 1191.720 1121.269, 1192.268 1119.466, 1192.606 1118.585 C 1194.199 1114.432, 1175.153 1110.698, 1165.821 1113.333 M 205.607 1119.641 C 184.613 1124.142, 171.989 1137.656, 171.174 1156.500 C 170.523 1171.521, 176.989 1181.872, 191.359 1188.813 C 195.131 1190.636, 206.511 1194.349, 216.647 1197.066 C 243.914 1204.374, 248.329 1207.297, 248.368 1218.071 C 248.443 1238.955, 210.209 1242.118, 182.478 1223.522 L 176.098 1219.243 171.026 1228.339 C 168.236 1233.342, 166.160 1237.976, 166.414 1238.636 C 167.333 1241.030, 180.741 1247.988, 191 1251.393 C 223.976 1262.339, 257.775 1254.947, 268.698 1234.400 C 276.509 1219.707, 274.546 1202.782, 263.783 1192.019 C 257.877 1186.112, 247.878 1181.766, 228.117 1176.517 C 209.052 1171.452, 202.242 1168.552, 199.123 1164.172 C 193.543 1156.336, 196.538 1146.538, 206 1141.671 L 211.500 1138.842 223 1139.262 C 235.859 1139.732, 246.484 1142.626, 255.378 1148.084 C 258.061 1149.730, 260.359 1150.947, 260.484 1150.788 C 260.609 1150.630, 262.781 1146.094, 265.312 1140.709 L 269.912 1130.917 266.706 1128.965 C 261.269 1125.654, 247.961 1121.308, 238.074 1119.615 C 226.620 1117.653, 214.835 1117.662, 205.607 1119.641 M 938.459 1119.338 C 925.851 1122.543, 916.034 1130.126, 911.454 1140.200 C 907.664 1148.533, 907.458 1158.864, 910.923 1166.727 C 915.861 1177.933, 926.688 1184.265, 952.550 1191.077 C 976.769 1197.455, 985.992 1202.220, 989.950 1210.396 C 994.709 1220.227, 990.863 1232.960, 981.304 1239.022 C 973.120 1244.212, 967.750 1245.503, 954.500 1245.467 C 936.861 1245.419, 925.691 1241.881, 912.956 1232.308 L 906.900 1227.755 905.506 1229.628 C 904.739 1230.657, 903.530 1232.569, 902.819 1233.876 L 901.527 1236.252 905.514 1239.703 C 910.449 1243.976, 925.473 1251.441, 933.500 1253.609 C 942.542 1256.052, 961.928 1256.561, 970.387 1254.579 C 979.697 1252.397, 990.206 1246.709, 995.011 1241.250 C 1003.513 1231.591, 1005.611 1216.544, 1000.017 1205.350 C 996.541 1198.393, 994.602 1196.404, 986.627 1191.612 C 979.780 1187.497, 970.763 1184.385, 951.928 1179.636 C 932.163 1174.653, 924.934 1170.476, 920.975 1161.754 C 915.421 1149.519, 921.829 1136.582, 936.500 1130.410 C 942.550 1127.865, 956.955 1127.405, 966.982 1129.436 C 975.416 1131.145, 985.689 1135.218, 990.869 1138.907 L 993.696 1140.920 996.024 1135.949 L 998.352 1130.978 996.426 1129.518 C 993.716 1127.463, 981.313 1122.337, 974.354 1120.395 C 966.643 1118.244, 945.245 1117.614, 938.459 1119.338 M 439 1154.102 C 429.095 1155.476, 418.351 1161.227, 414.264 1167.343 C 410.057 1173.637, 408.662 1179.048, 409.270 1186.710 C 410.133 1197.580, 415.931 1204.506, 428.007 1209.095 C 430.902 1210.195, 438.947 1212.441, 445.885 1214.086 C 453.364 1215.860, 459.990 1218.062, 462.161 1219.494 C 468.889 1223.935, 468.083 1231.709, 460.500 1235.500 C 457.267 1237.116, 454.582 1237.489, 446.500 1237.441 C 435.386 1237.375, 427.369 1235.203, 418.735 1229.917 C 416.114 1228.313, 413.639 1227.031, 413.235 1227.068 C 412.831 1227.106, 410.732 1230.742, 408.571 1235.148 C 405.308 1241.802, 404.884 1243.322, 406.071 1244.115 C 417.515 1251.760, 428.180 1255.122, 443 1255.757 C 456.216 1256.323, 462.948 1255.222, 471.565 1251.086 C 482.862 1245.663, 488.939 1236.541, 488.978 1224.946 C 488.995 1219.841, 488.418 1217.224, 486.365 1213.105 C 481.887 1204.119, 474.766 1200.295, 452.500 1194.923 C 438.226 1191.479, 434.898 1190.121, 432.561 1186.783 C 426.802 1178.561, 437.296 1169.824, 451 1171.431 C 458.373 1172.295, 466.860 1174.555, 472.702 1177.210 C 475.341 1178.410, 477.865 1179.415, 478.311 1179.445 C 478.757 1179.475, 480.882 1175.757, 483.032 1171.181 L 486.942 1162.863 481.632 1160.432 C 469.785 1155.008, 451.762 1152.332, 439 1154.102 M 537.500 1154.012 C 522.422 1156.072, 510.729 1164.252, 507.594 1174.932 C 505.593 1181.750, 505.569 1187.527, 507.520 1193.056 C 511.248 1203.623, 518.531 1208.097, 540.952 1213.592 C 548.853 1215.528, 556.568 1217.760, 558.098 1218.551 C 564.463 1221.842, 565.841 1228.313, 561.171 1232.983 C 556.115 1238.039, 544.678 1239.427, 532.240 1236.494 C 525.933 1235.008, 514.686 1229.919, 513.514 1228.022 C 511.999 1225.572, 509.980 1227.509, 506.574 1234.682 C 504.567 1238.907, 503.164 1242.985, 503.455 1243.743 C 504.241 1245.791, 519.699 1252.725, 527.608 1254.577 C 532.706 1255.771, 537.754 1256.080, 547 1255.765 L 559.500 1255.339 565.872 1252.690 C 579.394 1247.068, 586.446 1237.569, 586.374 1225.069 C 586.347 1220.345, 585.696 1217.164, 584.055 1213.744 C 579.716 1204.697, 572.782 1200.857, 551.089 1195.487 C 535.263 1191.570, 531.784 1190.126, 529.397 1186.484 C 527.225 1183.169, 528.281 1177.711, 531.598 1175.102 C 535.580 1171.970, 543.553 1170.730, 551.528 1172.004 C 559.182 1173.227, 569.336 1176.422, 572.408 1178.573 C 575.281 1180.586, 576.755 1180.351, 577.571 1177.750 C 577.959 1176.513, 579.564 1172.833, 581.138 1169.573 C 582.712 1166.313, 584 1163.475, 584 1163.267 C 584 1163.060, 581.597 1161.789, 578.660 1160.445 C 567.032 1155.121, 549.472 1152.377, 537.500 1154.012 M 700.402 1153.997 C 673.697 1157.913, 656 1178.309, 656 1205.172 C 656 1224.572, 667.333 1242.871, 684.302 1250.869 C 717.153 1266.352, 755.064 1246.519, 760.219 1211.154 L 761.427 1202.862 759.755 1194.777 C 757.533 1184.028, 754.015 1177.159, 746.765 1169.408 C 739.355 1161.487, 729.969 1156.538, 718.464 1154.489 C 709.747 1152.936, 707.970 1152.887, 700.402 1153.997 M 830.712 1154.141 C 823.430 1155.537, 815.647 1159.363, 810.572 1164.041 L 806 1168.255 806 1161.627 L 806 1155 795 1155 L 784 1155 784 1205.033 L 784 1255.066 795.250 1254.783 L 806.500 1254.500 807 1223 L 807.500 1191.500 809.658 1187.500 C 813.927 1179.589, 820.836 1175.097, 830.016 1174.265 C 840.178 1173.343, 848.589 1177.719, 852.369 1185.892 L 854.500 1190.500 854.775 1222.500 L 855.049 1254.500 866.275 1254.500 L 877.500 1254.500 877.797 1221.500 C 878.117 1185.932, 877.597 1180.159, 873.278 1171.324 C 868.787 1162.137, 860.333 1156.240, 848.566 1154.086 C 841.737 1152.836, 837.453 1152.849, 830.712 1154.141 M 326 1155.836 C 313.214 1160.095, 305.799 1165.289, 299.550 1174.362 C 285.335 1195.002, 287.692 1224.144, 304.943 1241.023 C 311.514 1247.453, 320.103 1252.110, 329.988 1254.602 C 339.568 1257.017, 355.273 1256.133, 364.280 1252.672 C 371.508 1249.895, 381.854 1243.543, 382.687 1241.372 C 382.964 1240.651, 380.792 1237.235, 377.861 1233.781 C 374.929 1230.326, 372.453 1227.354, 372.358 1227.176 C 372.264 1226.998, 370.297 1228.221, 367.988 1229.894 C 361.405 1234.662, 354.007 1237, 345.500 1237 C 331.702 1237, 321.735 1231.161, 316.023 1219.731 L 312.909 1213.500 352.088 1213.238 L 391.266 1212.977 390.777 1203.238 C 389.635 1180.489, 377.166 1162.299, 358.649 1156.368 C 350.728 1153.831, 332.889 1153.540, 326 1155.836 M 1059.161 1155.076 C 1055.675 1155.528, 1050.500 1156.642, 1047.661 1157.552 C 1040.587 1159.819, 1029 1165.121, 1029 1166.091 C 1029 1167.477, 1033.220 1174.099, 1033.874 1173.740 C 1054.437 1162.435, 1077.130 1160.846, 1088.126 1169.942 C 1093.171 1174.115, 1095.812 1180.306, 1096.605 1189.817 L 1097.269 1197.782 1074.385 1198.236 L 1051.500 1198.689 1044.995 1200.809 C 1036.461 1203.590, 1031.011 1207.726, 1027.585 1214.021 C 1020.724 1226.626, 1024.280 1241.988, 1035.854 1249.744 C 1042.306 1254.069, 1049.784 1256, 1060.076 1256 C 1074.176 1256, 1086.262 1251.160, 1093.908 1242.452 L 1096.916 1239.026 1097.208 1246.763 L 1097.500 1254.500 1102.250 1254.805 L 1107 1255.110 1107 1219.644 L 1107 1184.178 1105.095 1178.058 C 1103.249 1172.127, 1099.693 1166.416, 1095.525 1162.689 C 1092.016 1159.551, 1083.742 1156.144, 1077 1155.060 C 1069.759 1153.896, 1068.247 1153.897, 1059.161 1155.076 M 1236.402 1155.486 C 1219.394 1159.186, 1206.091 1171.253, 1201.059 1187.545 C 1194.975 1207.241, 1199.305 1227.440, 1212.428 1240.580 C 1224.085 1252.252, 1240.474 1257.652, 1256.750 1255.183 C 1266.009 1253.779, 1278.844 1247.850, 1283.852 1242.665 L 1287.204 1239.195 1284.914 1236.097 C 1283.654 1234.394, 1282.222 1233, 1281.730 1233 C 1281.239 1233, 1278.929 1234.563, 1276.598 1236.473 C 1264.031 1246.771, 1246.293 1249.082, 1231.854 1242.303 C 1223.889 1238.563, 1220.116 1235.388, 1215.663 1228.680 C 1212.602 1224.067, 1207.362 1211.287, 1208.200 1210.477 C 1208.365 1210.318, 1228.022 1209.856, 1251.882 1209.451 L 1295.264 1208.714 1294.744 1200.607 C 1294.458 1196.148, 1293.272 1189.800, 1292.108 1186.500 C 1289.528 1179.186, 1282.127 1168.097, 1277.442 1164.523 C 1271.987 1160.363, 1262.077 1156.180, 1255 1155.052 C 1246.877 1153.756, 1244.047 1153.822, 1236.402 1155.486 M 609 1205 L 609 1255 620.500 1255 L 632 1255 632 1205 L 632 1155 620.500 1155 L 609 1155 609 1205 M 1234.863 1165.512 C 1221.753 1169.704, 1211.517 1182.210, 1208.477 1197.750 L 1207.841 1201 1246.440 1201 L 1285.038 1201 1284.419 1198.250 C 1281.614 1185.798, 1279.636 1181.663, 1273.177 1174.758 C 1265.993 1167.077, 1260.444 1164.683, 1249 1164.326 C 1242.609 1164.126, 1237.982 1164.514, 1234.863 1165.512 M 331.500 1173.148 C 328.129 1174.392, 322.418 1178.421, 319.694 1181.475 C 317.108 1184.375, 313.021 1193.102, 313.010 1195.750 L 313 1198 341 1198 L 369 1198 369 1195.395 C 369 1192.309, 364.754 1183.474, 361.675 1180.155 C 356.863 1174.966, 351.196 1172.643, 342.592 1172.332 C 338.141 1172.172, 333.150 1172.538, 331.500 1173.148 M 698.275 1174.594 C 692.181 1176.839, 684.707 1183.972, 681.901 1190.221 C 679.980 1194.500, 679.528 1197.205, 679.515 1204.500 L 679.500 1213.500 682.151 1219.155 C 687.482 1230.526, 696.228 1236, 709.064 1236 C 714.468 1236, 716.814 1235.456, 721.132 1233.200 C 741.708 1222.451, 742.325 1187.946, 722.143 1176.677 C 715.558 1173, 705.082 1172.086, 698.275 1174.594 M 1054.217 1207.103 C 1038.450 1209.760, 1030.224 1222.090, 1035.893 1234.571 C 1043.917 1252.237, 1074.757 1252.082, 1091.015 1234.294 C 1096.587 1228.197, 1097.243 1225.955, 1096.805 1214.500 L 1096.500 1206.500 1078 1206.356 C 1067.825 1206.277, 1057.123 1206.613, 1054.217 1207.103" stroke="none" fill="#f3f3f3" fill-rule="evenodd"/></svg>